# xmcd
#
# Track frame offsets:
#	150
#	13665
#	24422
#	37272
#	53870
#	69771
#	81966
#	92236
#	102426
#	115114
#
# Disc length: 1725 seconds
#
# Revision: 1
# Processed by: cddbd v1.5.2PL0 Copyright (c) Steve Scherf et al.
# Submitted via: audiograbber 1.83.01
#
DISCID=7c06bb0a
DTITLE=Various Artist - Best Of The Girl Groups
DYEAR=2003
DGENRE=R&B
TTITLE0=The Supremes - You Can't Hurry Love
TTITLE1=The Crystals - He's a Rebel
TTITLE2=The Shangri-Las - Leader of the Pack
TTITLE3=The Marvelettes - Don't Mess with Bill
TTITLE4=The Velvelettes - Come See About Me
TTITLE5=The Supremes - Baby Love
TTITLE6=The Crystals - Da Doo Ron Ron
TTITLE7=The Shangri-Las - (Remember) Walking in the Sand
TTITLE8=The Supremes - You Keep Me Hangin' On
TTITLE9=The Supremes w/ Lynda Laurence - Love Child
EXTD=
EXTT0=
EXTT1=
EXTT2=
EXTT3=
EXTT4=
EXTT5=
EXTT6=
EXTT7=
EXTT8=
EXTT9=
PLAYORDER=
